<svg width="460" height="180" viewBox="0 0 460 180" fill="none" xmlns="http://www.w3.org/2000/svg">
<rect width="460" height="180" fill="#F4511E"/>
<path d="M220.87 102.83C223.21 102.83 224.92 102.17 226.02 100.85C227.11 99.53 227.7 97.29 227.8 94.12V93.16C227.8 89.67 227.24 87.16 226.13 85.65C225.02 84.13 223.22 83.38 220.72 83.38C218.68 83.38 217.09 84.22 215.97 85.9C214.84 87.58 214.28 90.02 214.28 93.23C214.28 96.43 214.85 98.84 215.99 100.44C217.12 102.03 218.75 102.83 220.87 102.83ZM217.66 109.91C213.72 109.91 210.62 108.42 208.37 105.45C206.12 102.48 205 98.36 205 93.1C205 87.76 206.14 83.6 208.43 80.62C210.72 77.64 213.88 76.15 217.9 76.15C222.12 76.15 225.34 77.74 227.56 80.93H227.86C227.4 78.5 227.17 76.34 227.17 74.43V64H236.35V109.33H229.33L227.56 105.11H227.17C225.09 108.31 221.92 109.91 217.66 109.91Z" fill="#394755"/>
<path d="M251.99 92.7L241.19 76.76H251.57L258.08 87.13L264.65 76.76H275.03L264.11 92.7L275.54 109.33H265.13L258.08 98.17L251 109.33H240.62L251.99 92.7Z" fill="#394755"/>
<path d="M290.09 109.33H280.94V66.74H306.08V74.14H290.09V85.12H304.97V92.49H290.09V109.33Z" fill="#394755"/>
<path d="M325.92 82.47C323.98 82.47 322.46 83.07 321.36 84.26C320.26 85.45 319.63 87.15 319.47 89.34H332.31C332.27 87.15 331.68 85.45 330.54 84.26C329.4 83.07 327.86 82.47 325.92 82.47ZM327.21 109.91C321.81 109.91 317.59 108.46 314.55 105.57C311.51 102.68 309.99 98.58 309.99 93.28C309.99 87.82 311.4 83.6 314.2 80.62C317.01 77.64 320.9 76.15 325.86 76.15C330.6 76.15 334.29 77.46 336.93 80.09C339.57 82.71 340.89 86.33 340.89 90.96V95.27H319.26C319.36 97.79 320.13 99.77 321.57 101.18C323.01 102.6 325.03 103.31 327.63 103.31C329.65 103.31 331.56 103.11 333.36 102.7C335.16 102.29 337.04 101.64 339 100.75V107.62C337.4 108.4 335.69 108.98 333.87 109.35C332.05 109.72 329.83 109.91 327.21 109.91Z" fill="#394755"/>
<path d="M361.78 82.47C359.84 82.47 358.32 83.07 357.22 84.26C356.12 85.45 355.49 87.15 355.33 89.34H368.17C368.13 87.15 367.54 85.45 366.4 84.26C365.25 83.07 363.71 82.47 361.78 82.47ZM363.07 109.91C357.67 109.91 353.45 108.46 350.41 105.57C347.37 102.68 345.85 98.58 345.85 93.28C345.85 87.82 347.26 83.6 350.06 80.62C352.87 77.64 356.75 76.15 361.72 76.15C366.46 76.15 370.15 77.46 372.79 80.09C375.43 82.72 376.75 86.33 376.75 90.96V95.27H355.12C355.22 97.79 355.99 99.77 357.43 101.18C358.87 102.6 360.89 103.31 363.49 103.31C365.51 103.31 367.42 103.11 369.22 102.7C371.02 102.29 372.9 101.64 374.86 100.75V107.62C373.26 108.4 371.55 108.98 369.73 109.35C367.91 109.72 365.69 109.91 363.07 109.91Z" fill="#394755"/>
<path d="M398.02 102.83C400.36 102.83 402.07 102.17 403.17 100.85C404.26 99.53 404.85 97.29 404.95 94.12V93.16C404.95 89.67 404.39 87.16 403.29 85.65C402.18 84.13 400.37 83.38 397.87 83.38C395.83 83.38 394.24 84.22 393.11 85.9C391.98 87.58 391.42 90.02 391.42 93.23C391.42 96.43 391.99 98.84 393.13 100.44C394.27 102.03 395.9 102.83 398.02 102.83ZM394.81 109.91C390.87 109.91 387.77 108.42 385.52 105.45C383.27 102.48 382.15 98.36 382.15 93.1C382.15 87.76 383.29 83.6 385.58 80.62C387.87 77.64 391.03 76.15 395.05 76.15C399.27 76.15 402.49 77.74 404.71 80.93H405.01C404.55 78.5 404.32 76.34 404.32 74.43V64H413.5V109.33H406.48L404.71 105.11H404.32C402.24 108.31 399.07 109.91 394.81 109.91Z" fill="#394755"/>
<path d="M123.912 101.214L151.69 116.544L154.206 117.656C152.938 117.557 152.459 117.497 151.391 117.428C150.622 117.428 149.414 117.428 148.645 117.428C147.816 117.428 146.977 117.428 146.149 117.428H141.306H138.81H133.967H131.471H123.912V127.197H131.471H133.967H138.81H141.306H146.149H148.645H153.487H155.984H160.826H163.322H168.165H170.661H178V119.9V117.418V112.602V110.12V105.305V102.823V92.9835H168.165V93.1126V102.833V104.074V105.315V110.13V111.371V112.612V113.943L130.722 92.9935H123.922V101.214H123.912Z" fill="white"/>
<path d="M60.02 118.977L87.7976 103.647L90.3138 102.535C89.0457 102.634 88.5664 102.694 87.4981 102.763C86.7292 102.763 85.5211 102.763 84.7523 102.763C83.9235 102.763 83.0848 102.763 82.2561 102.763H77.4135H74.9173H70.0647H67.5685H60.01V92.9835H67.5685H70.0647H74.9073H77.4035H82.2461H84.7423H89.5849H92.0811H96.9237H99.4199H104.263H106.759H114.097V100.281V102.763V107.579V110.061V114.876V117.358V127.207H104.263V127.078V117.358V116.117V114.876V110.061V108.82V107.579V106.248L60.02 131V127.197V118.977Z" fill="#394755"/>
<path d="M123.912 74.983L151.69 59.6534L154.206 58.5413C152.938 58.6406 152.459 58.7002 151.391 58.7697C150.622 58.7697 149.414 58.7697 148.645 58.7697C147.816 58.7697 146.977 58.7697 146.149 58.7697H141.306H138.81H133.967H131.471H123.912V49H131.471H133.967H138.81H141.306H146.149H148.645H153.487H155.984H160.826H163.322H168.165H170.661H178V56.2975V58.7796V63.595V66.0771V70.8925V73.3746V83.2238H168.165V83.0947V73.3746V72.1336V70.8925V66.0771V64.8361V63.595V62.2646L130.722 83.2138H123.922V74.983H123.912Z" fill="white"/>
<path d="M114.087 74.983L86.3099 59.6534L83.7937 58.5413C85.0618 58.6406 85.541 58.7002 86.6094 58.7697C87.3782 58.7697 88.5864 58.7697 89.3552 58.7697C90.184 58.7697 91.0227 58.7697 91.8514 58.7697H96.694H99.1902H104.033H106.529H114.087V49H106.529H104.033H99.1902H96.694H91.8514H89.3552H84.5126H82.0164H77.1738H74.6776H69.835H67.3388H60V56.2975V58.7796V63.595V66.0771V70.8925V73.3746V83.2238H69.835V83.0947V73.3746V72.1336V70.8925V66.0771V64.8361V63.595V62.2646L107.278 83.2138H114.078V74.983H114.087Z" fill="white"/>
</svg>
